<svg id="Capa_1" enable-background="new 0 0 496.71 496.71" height="512" viewBox="0 0 496.71 496.71" width="512" xmlns="http://www.w3.org/2000/svg"><g><g><g><path d="m82.707 248.606-15.568-10h-46.609c-11.339 0-20.53-9.192-20.53-20.53 0-11.339 9.192-20.53 20.53-20.53h41.647c11.339 0 20.53 9.192 20.53 20.53z" fill="#b1abb4"/></g></g><g><g><path d="m414.003 248.606 15.794-10h46.383c11.339 0 20.53-9.192 20.53-20.53 0-11.339-9.192-20.53-20.53-20.53h-41.647c-11.339 0-20.53 9.192-20.53 20.53z" fill="#b1abb4"/></g></g><g><g><path d="m332.115 138.049-86.373 20-90.467-20 8.294-46.639c.987-5.549 5.811-9.591 11.447-9.591h137.357c5.636 0 10.46 4.042 11.447 9.591z" fill="#d9d9d9"/></g></g><g><g><path d="m276.845 116.134h-62.165c-4.142 0-7.5-3.358-7.5-7.5s3.358-7.5 7.5-7.5h62.165c4.143 0 7.5 3.358 7.5 7.5s-3.357 7.5-7.5 7.5z" fill="#b1abb4"/></g></g><g><g><path d="m216.959 138.049-38.861 20-38.898-20v-81.534c0-6.583 5.337-11.92 11.92-11.92h53.918c6.583 0 11.92 5.337 11.92 11.92v81.534z" fill="#5392f9"/></g></g><g><g><path d="m192.118 116.134h-22.438c-4.142 0-7.5-3.358-7.5-7.5v-34.624c0-4.142 3.358-7.5 7.5-7.5s7.5 3.358 7.5 7.5v27.124h14.938c4.142 0 7.5 3.358 7.5 7.5s-3.358 7.5-7.5 7.5z" fill="#f7f7f7"/></g></g><g><g><path d="m361.431 138.049h-225.926c-20.203 0-37.519 13.923-41.147 33.085l-14.01 67.472 169.707 20 166.534-20-14.011-67.472c-3.628-19.162-20.944-33.085-41.147-33.085z" fill="#f7f7f7"/></g></g><g><g><path d="m402.578 171.134c-3.628-19.162-20.944-33.085-41.147-33.085h-29.322c20.203 0 37.519 13.923 41.147 33.085l14.011 67.472h29.322z" fill="#e8e8e8"/></g></g><g><g><path d="m146.52 452.115h-70.225c-6.906 0-12.504-5.598-12.504-12.504v-55.805l47.616-20 47.616 20v55.805c.001 6.906-5.598 12.504-12.503 12.504z" fill="#766d78"/></g></g><g><g><path d="m337.913 424.428v-40.622l47.616-20 47.616 20v52.387c0 8.794-7.129 15.922-15.922 15.922h-63.388c-8.793 0-15.922-7.129-15.922-15.922z" fill="#766d78"/></g></g><g><g><path d="m129.024 383.806v55.805c0 6.906-5.598 12.504-12.504 12.504h30c6.906 0 12.504-5.599 12.504-12.504v-55.805l-15.207-20z" fill="#655e67"/></g></g><g><g><path d="m403.145 383.806v52.387c0 8.793-7.129 15.922-15.922 15.922h30c8.794 0 15.922-7.129 15.922-15.922v-52.387l-15.764-20z" fill="#655e67"/></g></g><g><g><path d="m31.728 342.808v-68.791c0-19.557 15.854-35.411 35.411-35.411h362.658c19.557 0 35.411 15.854 35.411 35.411v67.345" fill="#f3d332"/></g></g><g><g><path d="m429.797 238.606h-37.239c19.557 0 35.411 15.854 35.411 35.411v67.345l-396.241 1.322v.124l433.48-1.446v-67.345c0-19.557-15.854-35.411-35.411-35.411z" fill="#ecc52e"/></g></g><g><g><path d="m479.667 383.806h-462.397c-6.183 0-11.195-5.012-11.195-11.195v-25.943c0-6.183 5.012-11.195 11.195-11.195h462.397c6.183 0 11.195 5.012 11.195 11.195v25.943c-.001 6.183-5.013 11.195-11.195 11.195z" fill="#b1abb4"/></g></g><g><g><path d="m477.095 335.473h-29.322c7.603 0 13.766 6.163 13.766 13.766v20.801c0 7.603-6.163 13.766-13.766 13.766h29.322c7.603 0 13.766-6.163 13.766-13.766v-20.801c0-7.602-6.163-13.766-13.766-13.766z" fill="#a29aa5"/></g></g><g><g><path d="m351.894 413.455h-212.304c-5.475 0-9.912-4.438-9.912-9.912v-27.242c0-5.474 4.438-9.912 9.912-9.912h212.304c5.474 0 9.912 4.438 9.912 9.912v27.242c.001 5.474-4.437 9.912-9.912 9.912z" fill="#f7f7f7"/></g></g><g><g><path d="m349.344 366.389h-29.322c6.883 0 12.463 4.703 12.463 10.504v26.059c0 5.801-5.58 10.504-12.463 10.504h29.322c6.883 0 12.463-4.703 12.463-10.504v-26.059c0-5.802-5.58-10.504-12.463-10.504z" fill="#e8e8e8"/></g></g><g><g><path d="m120.201 286.983c0 11.883-9.633 21.516-21.516 21.516s-21.516-9.633-21.516-21.516 9.633-21.516 21.516-21.516 21.516 9.633 21.516 21.516z" fill="#fafafa"/></g></g><g><g><path d="m417.381 286.983c0 11.883-9.633 21.516-21.516 21.516s-21.516-9.633-21.516-21.516 9.633-21.516 21.516-21.516 21.516 9.633 21.516 21.516z" fill="#fafafa"/></g></g><g><g><path d="m326.257 294.483h-155.577c-4.142 0-7.5-3.358-7.5-7.5s3.358-7.5 7.5-7.5h155.577c4.143 0 7.5 3.358 7.5 7.5s-3.358 7.5-7.5 7.5z" fill="#dbb72b"/></g></g></g></svg>