<svg id="icons" enable-background="new 0 0 64 64" height="512" viewBox="0 0 64 64" width="512" xmlns="http://www.w3.org/2000/svg"><g><g><path d="m13.989 1v58h39.01 3.01v-58z" fill="#5d9cec"/><path d="m13.991 0c-.553 0-1 .447-1 1s.447 1 1 1h42.016v-2z" fill="#5d9cec"/><path d="m56.009 59v4h-3.01v-3.829-.171z" fill="#2d74c1"/><path d="m52.999 59.171v3.829h-44.01v-4h5 39.01z" fill="#e6e9ed"/><path d="m8.989 1h5v58h-5z" fill="#656d78"/><g><path d="m13.991 59.996h-5c-.553 0-1-.447-1-1v-57.996c0-.553.447-1 1-1h5c.553 0 1 .447 1 1v57.996c0 .553-.447 1-1 1zm-4-2h3v-55.996h-3z" fill="#656d78"/></g><path d="m8.991 62c-.553 0-1 .447-1 1s.447 1 1 1h47.016v-2z" fill="#2d74c1"/><path d="m8.989 62h6.002v2h-6.002z" fill="#3679ce"/><g><path d="m8.991 64c-.553 0-1-.447-1-1v-4.004c0-.553.447-1 1-1s1 .447 1 1v4.004c0 .553-.447 1-1 1z" fill="#545c66"/></g><path d="m13.991 57.996c-.553 0-1 .447-1 1s.447 1 1 1h42.016v-2z" fill="#4a89dc"/><path d="m8.991 57.996h6v2h-6z" fill="#545c66"/><path d="m8.991 62h6v2h-6z" fill="#545c66"/><path d="m13.991 0h1v1h-1z" fill="#4a89dc"/></g><g><g><path d="m35 19.01c1.65 0 3 1.351 3 3 0 1.66-1.35 3-3 3-1.66 0-3-1.34-3-3 0-1.65 1.34-3 3-3z" fill="#aab2bd"/></g><g><path d="m24.61 16.01h20.78c.761 1.3 1.271 2.75 1.49 4.3-5.13 2.29-8.73 7.38-8.88 13.32-.96.25-1.97.38-3 .38-1.04 0-2.05-.13-3.01-.38-.15-5.939-3.75-11.02-8.87-13.31.22-1.551.729-3.011 1.479-4.311h.011z" fill="#545c66"/></g><g><path d="m35 19.01c-1.66 0-3 1.351-3 3 0 1.66 1.34 3 3 3 1.65 0 3-1.34 3-3 0-1.65-1.35-3-3-3z" fill="#aab2bd"/></g><g><path d="m38 33.63c5.17-1.33 9-6.03 9-11.62 0-.58-.04-1.14-.12-1.7-.22-1.55-.729-3-1.49-4.3-2.08-3.58-5.949-6-10.39-6s-8.32 2.42-10.39 6h-.01c-.75 1.3-1.26 2.76-1.479 4.311-.081.549-.121 1.119-.121 1.689 0 5.59 3.82 10.29 8.99 11.62.96.25 1.97.38 3.01.38 1.03 0 2.04-.13 3-.38zm-3-26.62c8.28 0 15 6.721 15 15 0 8.29-6.72 15-15 15-8.29 0-15-6.71-15-15 0-8.28 6.71-15 15-15z" fill="#656d78"/></g></g><g><g><path d="m42.033 49.029h-14.008c-.553 0-1-.447-1-1s.447-1 1-1h14.008c.553 0 1 .447 1 1s-.447 1-1 1z" fill="#4a89dc"/></g><g><path d="m49.033 46.031h-28.012c-.553 0-1-.447-1-1s.447-1 1-1h28.012c.553 0 1 .447 1 1s-.447 1-1 1z" fill="#4a89dc"/></g><g><path d="m49.033 43.016h-28.023c-.553 0-1-.447-1-1s.447-1 1-1h28.023c.553 0 1 .447 1 1s-.447 1-1 1z" fill="#4a89dc"/></g><g><g><path d="m31.019 54.004c-.553 0-1.005-.447-1.005-1s.442-1 .994-1h.011c.552 0 1 .447 1 1s-.449 1-1 1z" fill="#4a89dc"/></g><g><path d="m35.019 54.004c-.553 0-1.005-.447-1.005-1s.442-1 .994-1h.011c.552 0 1 .447 1 1s-.449 1-1 1z" fill="#4a89dc"/></g><g><path d="m39.019 54.004c-.553 0-1.005-.447-1.005-1s.442-1 .994-1h.011c.552 0 1 .447 1 1s-.449 1-1 1z" fill="#4a89dc"/></g></g></g></g></svg>