<?xml version="1.0" encoding="iso-8859-1"?>
<!-- Generator: Adobe Illustrator 21.0.0, SVG Export Plug-In . SVG Version: 6.00 Build 0)  -->
<svg xmlns="http://www.w3.org/2000/svg" xmlns:xlink="http://www.w3.org/1999/xlink" version="1.1" id="Capa_1" x="0px" y="0px" viewBox="0 0 512 512" style="enable-background:new 0 0 512 512;" xml:space="preserve" width="512" height="512">
<g>
	<g>
		<g>
			<g>
				<g>
					<g>
						<g>
							<g>
								<g>
									<g>
										<g>
											<g>
												<g>
													<g>
														<circle style="fill:#7FE881;" cx="256" cy="256" r="256"/>
													</g>
												</g>
											</g>
										</g>
									</g>
								</g>
							</g>
						</g>
					</g>
				</g>
			</g>
		</g>
	</g>
	<path style="fill:#5BC980;" d="M512,256c0-13.039-0.982-25.848-2.862-38.362L379.5,88L110.219,424l79.249,79.25   C210.686,508.945,232.985,512,256,512C397.385,512,512,397.385,512,256z"/>
	<g>
		<rect x="132.5" y="88" style="fill:#FFFFFF;" width="247" height="336"/>
	</g>
	<g>
		<rect x="132.5" y="255.905" style="fill:#E9EDF5;" width="247" height="168.095"/>
	</g>
	<g>
		<path style="fill:#353D44;" d="M269.559,193.089c-30.115,0-56.784,10.97-73.197,27.83l3.238,15.379    c6.046-3.427,13.032-5.386,20.477-5.386c22.972,0,41.594,18.622,41.594,41.594c0,6.464-1.474,12.583-4.105,18.04h23.988    c-2.631-5.457-4.105-11.576-4.105-18.04c0-22.972,18.622-41.594,41.594-41.594c10.549,0,20.177,3.931,27.509,10.403V225.14    C330.654,205.911,302.12,193.089,269.559,193.089z"/>
	</g>
	<g>
		<path style="fill:#333940;" d="M269.559,193.088c-0.187,0-0.372,0.006-0.559,0.006v97.451h12.553    c-2.631-5.457-4.105-11.577-4.105-18.041c0-22.972,18.622-41.594,41.594-41.594c10.549,0,20.177,3.931,27.509,10.403V225.14    C330.654,205.911,302.12,193.088,269.559,193.088z"/>
	</g>
	<g>
		<path style="fill:#555A66;" d="M269.559,130.129c-49.653,0-89.904,40.251-89.904,89.904s40.251,89.904,89.904,89.904    s89.904-40.251,89.904-89.904S319.211,130.129,269.559,130.129z M269.559,283.422c-35.009,0-63.389-28.38-63.389-63.389    s28.38-63.389,63.389-63.389s63.389,28.38,63.389,63.389S304.568,283.422,269.559,283.422z"/>
	</g>
	<g>
		<path style="fill:#353D44;" d="M269.559,130.129c-0.187,0-0.372,0.006-0.559,0.007v26.522c0.187-0.001,0.371-0.014,0.559-0.014    c35.009,0,63.389,28.38,63.389,63.389s-28.38,63.389-63.389,63.389c-0.187,0-0.372-0.013-0.559-0.014v26.522    c0.187,0.001,0.372,0.007,0.559,0.007c49.653,0,89.904-40.251,89.904-89.904C359.463,170.381,319.211,130.129,269.559,130.129z"/>
	</g>
	<g>
		<rect x="110.219" y="88" style="fill:#FF641A;" width="46.5" height="336"/>
	</g>
	<g>
		<rect x="110.219" y="255.905" style="fill:#F03800;" width="46.5" height="168.095"/>
	</g>
	<g>
		<rect x="191" y="355.667" style="fill:#FF641A;" width="145.333" height="34"/>
	</g>
	<g>
		<rect x="269" y="355.667" style="fill:#F03800;" width="67.333" height="34"/>
	</g>
</g>















</svg>
